<svg width="30" height="30" viewBox="0 0 30 30" fill="none" xmlns="http://www.w3.org/2000/svg">
<g style="mix-blend-mode:multiply" opacity="0.8">
<circle cx="15" cy="15" r="15" fill="#272727"/>
</g>
<path d="M7.29289 18.2929C6.90237 18.6834 6.90237 19.3166 7.29289 19.7071C7.68342 20.0976 8.31658 20.0976 8.70711 19.7071L7.29289 18.2929ZM15 12L15.7071 11.2929L15 10.5858L14.2929 11.2929L15 12ZM21.2929 19.7071C21.6834 20.0976 22.3166 20.0976 22.7071 19.7071C23.0976 19.3166 23.0976 18.6834 22.7071 18.2929L21.2929 19.7071ZM8.70711 19.7071L15.7071 12.7071L14.2929 11.2929L7.29289 18.2929L8.70711 19.7071ZM14.2929 12.7071L21.2929 19.7071L22.7071 18.2929L15.7071 11.2929L14.2929 12.7071Z" fill="white"/>
</svg>
